<?xml version="1.0" standalone="no"?>
<!DOCTYPE svg PUBLIC "-//W3C//DTD SVG 20010904//EN"
 "http://www.w3.org/TR/2001/REC-SVG-20010904/DTD/svg10.dtd">
<svg version="1.0" xmlns="http://www.w3.org/2000/svg"
 width="512.000000pt" height="512.000000pt" viewBox="0 0 512.000000 512.000000"
 preserveAspectRatio="xMidYMid meet">

<g transform="translate(0.000000,512.000000) scale(0.100000,-0.100000)"
fill="#475467" stroke="none">
<path d="M404 5105 c-191 -41 -349 -201 -390 -394 -21 -99 -21 -4203 0 -4302
42 -195 200 -353 395 -395 99 -21 4203 -21 4302 0 195 42 353 200 395 395 21
99 21 4203 0 4302 -42 195 -200 353 -395 395 -95 20 -4214 19 -4307 -1z m2086
-1510 l0 -175 -365 0 -365 0 0 -1040 0 -1040 -190 0 -190 0 0 1040 0 1040
-370 0 -370 0 0 175 0 175 925 0 925 0 0 -175z m1235 160 c319 -52 526 -233
606 -530 30 -113 31 -326 0 -439 -33 -122 -83 -217 -157 -296 -59 -62 -178
-150 -203 -150 -5 0 -13 -5 -16 -10 -4 -6 112 -227 257 -492 145 -265 265
-485 266 -490 2 -4 -97 -8 -220 -8 l-223 0 -244 455 -243 455 -244 0 -244 0 0
-455 0 -455 -192 2 -193 3 -3 1213 -2 1212 482 0 c376 0 503 -3 573 -15z"/>
<path d="M3060 3016 l0 -406 278 0 c199 0 296 4 343 14 197 42 289 163 289
380 0 186 -57 296 -185 360 -87 43 -127 48 -432 53 l-293 5 0 -406z"/>
</g>
</svg>
